<svg width="201" height="205" viewBox="0 0 201 205" fill="none" xmlns="http://www.w3.org/2000/svg">
<g id="grid/3">
<path id="Vector" d="M200.25 193.505C192.255 190.688 184.914 186.521 177.823 182.496C170.431 178.304 162.755 173.969 154.526 171.253C140.077 166.507 120.387 162.575 100.514 160.462C91.5228 159.506 83.0427 162.726 74.8387 165.836C64.1067 169.911 53.0062 174.12 40.7673 168.939C30.9728 164.788 25.5398 156.278 20.291 148.044C15.1761 140.029 9.8854 131.745 0.542969 127.36L0.902937 126.597C10.463 131.091 15.8207 139.475 20.9942 147.558C26.4188 156.06 31.5337 164.084 41.0854 168.125C53.0146 173.156 63.4704 169.215 74.5708 165.023C82.8585 161.87 91.4391 158.617 100.631 159.598C120.555 161.711 140.311 165.66 154.81 170.423C163.182 173.164 170.833 177.516 178.25 181.733C185.315 185.741 192.615 189.883 200.543 192.684L200.25 193.505Z" fill="white" fill-opacity="0.2"/>
<path id="Vector_2" d="M194.993 175.211C188.823 172.695 184.194 169.408 179.707 166.222C173.612 161.888 167.853 157.787 158.728 155.851C141.195 152.307 123.356 150.496 105.47 150.443C99.5008 150.443 93.5739 150.812 87.8395 151.197C71.2726 152.296 55.6181 153.335 39.2856 145.077C34.2628 142.561 29.8176 137.849 25.498 133.338C19.5795 127.117 13.46 120.694 5.92578 119.772L6.03461 118.934C13.8618 119.889 20.0817 126.429 26.1259 132.751C30.3953 137.237 34.8153 141.874 39.6875 144.339C55.8442 152.505 71.3814 151.474 87.8311 150.376C93.5822 149.99 99.551 149.537 105.52 149.621C123.466 149.671 141.363 151.488 158.954 155.046C168.246 157.025 174.073 161.166 180.242 165.56C184.688 168.721 189.284 171.982 195.361 174.448L194.993 175.211Z" fill="white" fill-opacity="0.2"/>
<path id="Vector_3" d="M191.142 156.53C188.539 154.803 186.262 153.176 184.06 151.592C175.094 145.177 168.615 140.549 154.451 140.155C148.298 139.987 142.203 141.077 136.31 142.125C130.86 143.098 125.218 144.104 119.525 144.113H119.375C94.9637 144.113 67.6061 133.808 46.4852 124.828C43.1276 123.3 39.8526 121.595 36.6739 119.722C28.3026 114.976 18.7509 109.594 9.88562 111.296L9.72656 110.457C18.9351 108.696 28.5788 114.155 37.1093 118.976C40.259 120.827 43.5062 122.506 46.8368 124.007C86.7849 141.002 106.591 143.232 119.358 143.232H119.55C125.168 143.232 130.776 142.226 136.193 141.253C142.12 140.197 148.247 139.099 154.501 139.275C168.925 139.677 175.488 144.373 184.571 150.871C186.764 152.438 189.041 154.065 191.628 155.784L191.142 156.53Z" fill="white" fill-opacity="0.2"/>
<path id="Vector_4" d="M132.476 138.084C125.218 138.084 115.599 133.951 107.755 130.538C104.851 129.289 102.105 128.115 99.7524 127.251C84.4412 121.65 69.0965 115.354 54.2625 109.258L48.0844 106.743C46.6613 106.156 45.1879 105.519 43.6894 104.865C33.7359 100.521 22.4597 95.5997 12.9582 102.307L12.4727 101.62C22.3676 94.6439 33.8698 99.6662 44.0243 104.093C45.5144 104.747 46.9794 105.384 48.4025 105.971L54.5806 108.487C69.4062 114.582 84.7174 120.879 100.037 126.472C102.414 127.31 105.169 128.526 108.082 129.775C116.453 133.38 126.909 137.858 134.092 137.137C139.474 136.583 143.3 133.682 147.385 130.605C150.734 128.09 154.233 125.423 158.729 124.141C172.123 120.292 181.515 128.182 188.907 136.407L188.288 136.969C180.703 128.534 171.897 121.24 158.988 124.946C154.652 126.186 151.228 128.777 147.921 131.276C143.945 134.286 139.826 137.397 134.209 137.984C133.633 138.048 133.055 138.082 132.476 138.084Z" fill="white" fill-opacity="0.2"/>
<path id="Vector_5" d="M139.416 129.028C131.982 129.028 122.221 124.601 114.235 120.979C111.171 119.587 108.283 118.279 105.863 117.349C100.062 115.144 94.1435 112.863 88.4845 110.641C77.7524 106.449 66.6603 102.181 55.6436 98.2152C54.0447 97.6367 52.4123 97.0162 50.7548 96.3874C39.3446 92.0358 27.5326 87.5417 16.6582 93.7966L16.248 93.0671C27.4657 86.611 39.9976 91.3902 51.0561 95.5825C52.7304 96.2113 54.3293 96.8234 55.9283 97.4019C66.9533 101.368 78.0537 105.669 88.7858 109.836C94.4783 112.041 100.363 114.322 106.165 116.544C108.676 117.491 111.539 118.799 114.611 120.199C123.276 124.123 134.058 129.02 141.4 128.047C147.092 127.301 152.283 121.818 157.305 116.51C163.048 110.44 168.481 104.705 174.743 105.275C179.021 105.661 183.114 108.998 187.375 115.479L186.672 115.932C182.595 109.685 178.669 106.474 174.668 106.105C168.808 105.568 163.509 111.136 157.925 117.089C152.802 122.497 147.511 128.098 141.525 128.877C140.826 128.976 140.122 129.026 139.416 129.028Z" fill="white" fill-opacity="0.2"/>
<path id="Vector_6" d="M129.319 109.987C114.787 109.987 99.1824 103.422 84.0386 97.0669C63.2441 88.3386 41.7465 79.3085 22.0906 86.5192L21.8311 85.7646C41.7716 78.4449 63.4283 87.5337 84.3651 96.3291C99.5926 102.726 115.339 109.342 129.847 109.183C137.64 109.09 144.748 104.353 151.612 99.7751C161.792 92.9837 172.323 85.9574 184.453 95.4655L183.934 96.1195C172.281 86.9887 162.47 93.537 152.073 100.471C145.099 105.116 137.892 109.929 129.847 110.021L129.319 109.987Z" fill="white" fill-opacity="0.2"/>
<path id="Vector_7" d="M104.013 84.8754C94.1098 84.8754 84.014 83.4501 74.2362 82.0666C59.5194 79.9789 44.3086 77.8241 29.6253 80.5239L29.4746 79.6854C44.2919 76.9604 59.6115 79.1237 74.3534 81.2198C84.8344 82.7039 95.6753 84.2298 106.215 83.9951C114.77 83.8106 123.435 82.6368 131.814 81.4797C145.284 79.6603 159.214 77.7821 173.077 79.9034L172.951 80.7419C159.205 78.6374 145.326 80.5071 131.932 82.3182C123.56 83.4501 114.837 84.6239 106.232 84.8335C105.495 84.8671 104.75 84.8754 104.013 84.8754Z" fill="white" fill-opacity="0.2"/>
<path id="Vector_8" d="M38.7165 75.5273L38.6328 74.6889C47.339 73.7834 56.3466 72.8359 64.7096 69.3312C67.3439 68.1585 69.8973 66.8112 72.3526 65.2982C76.0695 63.1182 79.8868 60.8628 84.3739 59.8902C97.4918 57.0478 111.723 59.6722 125.486 62.2043C136.954 64.3256 148.817 66.5056 159.934 65.4995L160.009 66.3379C148.783 67.3524 136.862 65.1557 125.335 63.0344C111.656 60.519 97.5085 57.9115 84.5497 60.7119C80.2133 61.651 76.6053 63.7722 72.7796 66.0193C70.2926 67.5525 67.7056 68.9167 65.0361 70.1026C56.5559 73.6576 47.4897 74.605 38.7165 75.5273Z" fill="white" fill-opacity="0.2"/>
<path id="Vector_9" d="M48.2426 70.7726L48.1338 69.9341C56.6056 68.7519 59.7867 62.9834 63.2022 56.8794C66.3415 51.2031 69.5896 45.3339 77.4335 43.4642C85.3779 41.5861 94.8627 42.9779 104.029 44.3026C108.341 44.9399 112.401 45.5352 116.109 45.7532C132.283 46.709 146.313 45.7532 160.26 42.8773L160.427 43.7157C146.413 46.6503 132.308 47.5642 116.059 46.6084C112.317 46.3904 108.232 45.7699 103.904 45.1495C94.8124 43.8163 85.4031 42.4413 77.6177 44.311C70.1588 46.0718 67.1451 51.5217 63.9557 57.2987C60.5736 63.3104 57.133 69.5317 48.2426 70.7726Z" fill="white" fill-opacity="0.2"/>
<path id="Vector_10" d="M55.3167 64.216L54.7559 63.5955C58.0123 60.6442 59.1173 57.173 60.2977 53.4921C61.1767 50.7253 62.0892 47.8578 64.0062 45.2753C69.1127 38.3916 75.5084 36.7147 83.9803 35.0881C90.3676 33.864 96.6294 32.7824 102.682 31.7343C125.117 27.8439 146.305 24.1882 168.983 14.3867L169.318 15.1581C146.548 24.9764 125.31 28.6572 102.824 32.556C96.7801 33.6041 90.5183 34.694 84.1393 35.9098C75.8517 37.4945 69.6066 39.1295 64.6759 45.77C62.851 48.2351 61.9552 51.0355 61.093 53.7353C59.9628 57.3742 58.7657 61.1137 55.3167 64.216Z" fill="white" fill-opacity="0.2"/>
<path id="Vector_11" d="M186.563 204.313C183.6 191.527 183.549 178.413 183.491 165.744C183.491 159.397 183.441 152.824 183.047 146.343C182.771 141.706 182.855 136.658 182.947 131.309C183.131 120.359 183.323 109.04 180.377 100.001C177.505 91.1975 170.708 86.2255 164.136 81.4212C158.435 77.2289 152.534 72.936 149.152 66.1278C143.635 55.0434 147.377 42.0055 150.985 29.3952C153.722 19.8536 156.552 9.99336 155.371 1.03868L156.209 0.929688C157.414 10.0521 154.534 20.0045 151.805 29.6299C148.231 42.0809 144.539 54.9596 149.905 65.7588C153.203 72.3742 159.013 76.6587 164.639 80.742C171.336 85.6218 178.225 90.6777 181.18 99.7413C184.135 108.805 183.976 120.309 183.792 131.326C183.7 136.658 183.616 141.689 183.893 146.292C184.286 152.799 184.311 159.38 184.336 165.744C184.395 178.371 184.445 191.434 187.392 204.137L186.563 204.313Z" fill="white" fill-opacity="0.2"/>
<path id="Vector_12" d="M169.117 197.002L168.28 196.901C169.067 190.47 170.138 184.492 171.168 178.715C173.428 166.013 175.571 154.014 174.332 139.727C174.006 135.896 173.939 131.745 173.863 127.36C173.696 116.913 173.528 106.114 169.795 97.7124C166.321 89.8896 159.046 85.1356 152.006 80.5157C145.51 76.2648 138.787 71.8629 134.861 65.0211C128.499 53.9284 132.936 40.3035 137.222 27.1314C139.306 20.7424 141.265 14.7139 141.91 9.23047L142.747 9.3227C142.094 14.89 140.118 20.9604 138.026 27.3913C133.798 40.3874 129.42 53.8278 135.598 64.6103C139.415 71.2676 146.054 75.6191 152.474 79.8198C159.615 84.49 166.999 89.3195 170.573 97.377C174.366 105.929 174.541 116.812 174.709 127.343C174.784 131.72 174.851 135.845 175.178 139.652C176.425 154.056 174.273 166.105 171.996 178.866C170.967 184.635 169.904 190.571 169.117 197.002Z" fill="white" fill-opacity="0.2"/>
<path id="Vector_13" d="M153.002 189.28L152.207 189.012C152.852 187.092 153.538 185.163 154.258 183.142C157.347 174.464 160.528 165.485 160.503 156.689C160.392 153.627 160.014 150.58 159.373 147.584C158.722 144.512 158.338 141.39 158.226 138.252C158.226 133.967 159.021 129.431 159.825 125.046C161.148 117.785 162.521 110.273 160.11 103.531C156.711 93.9898 148.114 87.8775 139.014 81.4046C130.567 75.3929 121.836 69.18 117.776 59.9905C112.351 47.7156 117.433 37.4026 122.799 26.4524C124.331 23.3418 125.913 20.1305 127.252 16.8438L128.031 17.1624C126.675 20.5162 125.084 23.7023 123.552 26.8213C118.261 37.5619 113.264 47.7156 118.529 59.6216C122.497 68.6014 131.136 74.7137 139.458 80.6919C148.264 86.9552 157.364 93.4364 160.855 103.221C163.366 110.18 161.951 117.802 160.604 125.172C159.808 129.523 158.988 134.018 159.021 138.227C159.133 141.314 159.514 144.386 160.16 147.408C160.804 150.443 161.185 153.529 161.298 156.631C161.298 165.577 158.117 174.624 155.012 183.369C154.325 185.44 153.647 187.36 153.002 189.28Z" fill="white" fill-opacity="0.2"/>
<path id="Vector_14" d="M134.551 182.002L133.714 181.843C134.509 176.849 134.957 171.806 135.054 166.751C135.472 157.108 135.891 147.139 140.863 139.224C142.639 136.502 144.62 133.92 146.79 131.502C151.47 126.061 155.162 121.759 152.525 112.779C148.925 100.513 137.147 91.4995 125.736 82.788C115.691 75.1077 105.31 67.1676 100.296 56.9301C94.2601 44.5797 101.97 35.4909 109.454 26.6955C110.526 25.4378 111.589 24.1801 112.618 22.9141L113.271 23.4423C112.233 24.7083 111.162 25.9576 110.09 27.2405C102.799 35.8262 95.2563 44.7054 101.049 56.5863C105.972 66.6477 116.277 74.5292 126.247 82.1507C137.774 90.921 149.67 100.018 153.345 112.595C156.116 122.011 152.29 126.463 147.443 132.097C145.296 134.485 143.336 137.036 141.583 139.727C136.736 147.449 136.309 157.335 135.899 166.834C135.799 171.915 135.349 176.983 134.551 182.002Z" fill="white" fill-opacity="0.2"/>
<path id="Vector_15" d="M111.656 175.797H110.819C110.819 173.609 110.819 171.605 110.819 169.634C110.693 157.477 110.618 150.132 124.581 143.382C126.666 142.368 128.909 141.462 131.077 140.59C137.473 138.016 143.517 135.56 145.484 130.739C146.64 127.896 146.321 124.442 144.413 120.166C138.553 106.75 126.414 96.362 114.703 86.3173C104.984 77.9831 94.9381 69.3554 88.4838 59.0425C78.3461 42.8352 85.738 37.2427 97.9853 28.0197L99.241 27.0723L99.7516 27.743L98.4708 28.7492C86.2068 37.9721 79.4511 43.0699 89.1786 58.6232C95.5576 68.8272 105.561 77.4046 115.23 85.7053C127.017 95.8086 139.197 106.264 145.166 119.855C147.133 124.35 147.485 128.022 146.238 131.082C144.137 136.247 137.933 138.746 131.37 141.395C129.21 142.234 126.984 143.164 124.924 144.162C111.438 150.685 111.53 157.821 111.639 169.651C111.664 171.58 111.689 173.6 111.656 175.797Z" fill="white" fill-opacity="0.2"/>
<path id="Vector_16" d="M90.0247 172.175L89.1876 172.125C90.2257 154.702 96.2614 150.006 110.828 142.737C112.502 141.899 114.235 141.11 115.901 140.347C122.338 137.396 128.416 134.612 130.132 129.691C131.178 126.697 130.584 123.059 128.307 118.564C124.958 111.907 116.202 103.254 106.96 94.09C90.7614 78.0252 72.4114 59.8224 74.6549 44.9148C75.5842 38.7605 80.0461 33.5621 87.9152 29.4453L88.3086 30.1915C80.5735 34.2329 76.3794 39.0875 75.4837 45.0405C73.2988 59.5206 91.4981 77.5725 107.546 93.4947C116.838 102.718 125.611 111.404 129.052 118.187C131.438 122.891 132.049 126.748 130.927 129.967C129.094 135.224 122.857 138.084 116.252 141.11C114.578 141.865 112.904 142.653 111.229 143.492C96.6465 150.753 91.046 155.113 90.0247 172.175Z" fill="white" fill-opacity="0.2"/>
<path id="Vector_17" d="M64.5256 181.935L63.6885 181.784C66.5131 165.82 72.7998 150.671 82.1055 137.405C83.9341 134.905 85.89 132.501 87.9654 130.203C93.5407 123.73 99.3086 117.039 98.011 108.068C96.5879 98.1654 89.6397 88.6825 82.8589 79.5182C71.3231 63.8559 59.4191 47.657 77.3673 30.2256L77.9449 30.8293C60.5074 47.7576 71.6915 62.942 83.5286 79.0235C90.3429 88.2465 97.3832 97.8384 98.8398 107.942C100.196 117.299 94.2941 124.141 88.5933 130.756C86.5591 133.038 84.6424 135.422 82.8505 137.9C73.596 151.057 67.3403 166.09 64.5256 181.935Z" fill="white" fill-opacity="0.2"/>
<path id="Vector_18" d="M40.2483 187.653L39.4111 187.569C39.9385 182.479 40.3738 177.264 40.7924 172.225C41.9895 157.913 43.2285 143.114 46.6523 128.969C49.1638 118.43 53.3494 112.402 58.2299 105.426C60.2809 102.474 62.4156 99.4223 64.5419 95.8002C70.2847 86.0993 68.6857 75.5851 66.9947 64.4504C65.3707 53.8189 63.7048 42.8184 68.669 32.1113L69.4308 32.4635C64.5838 42.9441 66.2413 53.8105 67.8403 64.3247C69.5564 75.6102 71.1888 86.267 65.2786 96.1859C63.1188 99.8331 60.9925 102.894 58.9331 105.862C54.1363 112.77 49.9925 118.74 47.4811 129.12C44.0823 143.206 42.8434 157.971 41.6212 172.25C41.1691 177.34 40.7338 182.555 40.2483 187.653Z" fill="white" fill-opacity="0.2"/>
<path id="Vector_19" d="M23.8909 168.092L23.0538 168.033C23.4723 162.432 23.2798 155.574 23.0538 148.313C22.4259 126.018 21.639 98.2656 38.5575 87.6256C40.3406 86.4937 42.1405 85.5043 43.8733 84.5485C49.2143 81.5971 54.2538 78.8135 57.6693 72.8102C61.922 65.4066 62.1229 54.9344 62.3071 45.703C62.374 42.4917 62.4326 39.4649 62.6503 36.6729L63.4874 36.7399C63.2781 39.5068 63.2112 42.5253 63.1526 45.7198C62.9684 55.0517 62.7591 65.633 58.406 73.2294C54.8733 79.392 49.7333 82.226 44.2919 85.236C42.559 86.1919 40.7759 87.1812 39.0096 88.288C22.5013 98.6764 23.2714 126.161 23.8993 148.246C24.1169 155.574 24.343 162.449 23.8909 168.092Z" fill="white" fill-opacity="0.2"/>
<path id="Vector_20" d="M11.7102 144.85L10.873 144.632C12.4887 138.528 13.0998 131.837 13.7528 124.76C15.0252 110.859 16.3479 96.4795 25.8578 86.8624C29.2733 83.408 33.8022 81.4712 38.1804 79.6098C42.0898 77.9329 46.1332 76.256 49.2473 73.422C59.0753 64.6183 59.1339 57.3321 59.2427 44.0762H60.0799C59.9794 57.0973 59.9124 64.962 49.8082 74.0173C46.5852 76.9016 42.4833 78.654 38.5069 80.3476C34.204 82.1838 29.7504 84.0788 26.4521 87.4158C17.1516 96.8232 15.8456 111.052 14.5815 124.802C13.9956 131.636 13.351 138.67 11.7102 144.85Z" fill="white" fill-opacity="0.2"/>
</g>
</svg>
